<?xml version="1.0" encoding="UTF-8"?>
<!--Generator: Apple Native CoreSVG 232.5-->
<!DOCTYPE svg
PUBLIC "-//W3C//DTD SVG 1.1//EN"
       "http://www.w3.org/Graphics/SVG/1.1/DTD/svg11.dtd">
<svg version="1.1" xmlns="http://www.w3.org/2000/svg" xmlns:xlink="http://www.w3.org/1999/xlink" width="72.168" height="42.5977">
 <g>
  <rect height="42.5977" opacity="0" width="72.168" x="0" y="0"/>
  <path d="M51.4258 9.375L58.0078 25.1758C58.5156 26.4062 58.9453 27.7148 58.9453 29.1797C58.9453 34.1406 55.0977 37.9883 49.668 37.9883L30.4588 37.9883C30.9317 36.9968 31.1824 35.9196 31.1884 34.8437L49.668 34.8438C53.3594 34.8438 55.8008 32.793 55.8008 29.1797C55.8008 25.957 53.3594 23.5156 49.668 23.5156L25.9763 23.5156C25.0257 22.1678 23.7627 21.0928 22.2949 20.3711L49.668 20.3711C50.7422 20.3711 51.7188 20.5469 52.6367 20.8789L48.3789 10.1758C47.6562 8.32031 46.0352 7.38281 43.8281 7.38281L27.9492 7.38281C25.7422 7.38281 24.1406 8.32031 23.3984 10.1758L19.6861 19.5078C19.0736 19.3945 18.4408 19.3359 17.793 19.3359C17.214 19.3359 16.6605 19.3835 16.1327 19.4728L20.3516 9.375C21.6406 6.25 24.2969 4.64844 27.793 4.64844L43.9844 4.64844C47.4805 4.64844 50.1367 6.25 51.4258 9.375ZM52.0703 29.1797C52.0703 30.5273 50.957 31.6016 49.6484 31.6016C48.3203 31.6016 47.1875 30.5469 47.1875 29.1797C47.1875 27.8711 48.3203 26.7578 49.6484 26.7578C50.957 26.7578 52.0703 27.8711 52.0703 29.1797Z" fill="#000"/>
  <path d="M8.82812 39.9219L23.0078 39.9219C26.1328 39.9219 28.5352 37.6172 28.5352 34.7852C28.5352 32.6367 27.2852 30.7422 25.293 29.9219C25.3125 25.3125 22.0117 21.9922 17.793 21.9922C15.0195 21.9922 13.0273 23.4961 11.7773 25.293C9.23828 24.5312 6.46484 26.5039 6.42578 29.3945C4.10156 29.7461 2.67578 31.8164 2.67578 34.3359C2.67578 37.3633 5.3125 39.9219 8.82812 39.9219Z" fill="#000"/>
 </g>
</svg>
