<?xml version="1.0" standalone="no"?>
<!DOCTYPE svg PUBLIC "-//W3C//DTD SVG 20010904//EN"
 "http://www.w3.org/TR/2001/REC-SVG-20010904/DTD/svg10.dtd">
<svg version="1.0" xmlns="http://www.w3.org/2000/svg"
 width="700.000000pt" height="700.000000pt" viewBox="0 0 700.000000 700.000000"
 preserveAspectRatio="xMidYMid meet">
<metadata>
Created by potrace 1.14, written by Peter Selinger 2001-2017
</metadata>
<g transform="translate(0.000000,700.000000) scale(0.100000,-0.100000)"
fill="#000000" stroke="none">
<path d="M3295 5049 c-27 -4 -63 -10 -80 -13 -16 -3 -46 -8 -65 -11 -59 -10
-235 -72 -307 -108 -70 -36 -177 -110 -224 -156 -83 -81 -170 -220 -199 -318
l-13 -43 -41 6 c-68 9 -226 11 -270 3 -22 -4 -54 -9 -71 -12 -82 -13 -182 -64
-263 -133 -121 -104 -208 -305 -211 -491 -1 -27 -6 -43 -13 -43 -18 0 -123
-56 -189 -101 -166 -112 -298 -286 -364 -479 -22 -65 -30 -100 -50 -220 -4
-19 -6 -84 -7 -145 -1 -298 125 -544 354 -692 61 -39 208 -109 208 -98 0 3 12
0 28 -6 105 -41 145 -42 1052 -44 947 -3 921 -4 957 51 17 27 18 92 19 1494 1
1173 -1 1471 -11 1497 -26 63 -98 82 -240 62z"/>
<path d="M3845 5049 c-17 -5 -40 -23 -52 -42 l-23 -33 0 -635 c1 -686 -1 -662
56 -699 28 -19 60 -20 1095 -20 l1066 0 33 22 c19 14 38 38 44 58 8 24 11 220
11 650 -1 677 1 657 -63 690 -30 16 -106 18 -1085 17 -578 0 -1065 -4 -1082
-8z m1711 -562 c99 -52 122 -175 48 -256 -37 -42 -100 -66 -148 -57 -93 17
-158 117 -133 206 28 104 140 155 233 107z"/>
<path d="M3832 3363 c-64 -31 -62 -8 -62 -704 l0 -633 23 -33 c12 -18 36 -37
52 -42 18 -6 445 -10 1079 -9 1152 0 1099 -3 1133 61 15 29 17 89 17 663 0
591 -1 632 -18 658 -38 58 8 56 -1138 56 -952 0 -1056 -2 -1086 -17z m1060
-544 c90 -23 142 -134 104 -222 -63 -148 -279 -128 -314 30 -15 69 16 138 82
178 39 23 77 28 128 14z m646 -2 c141 -52 147 -246 9 -307 -142 -64 -289 103
-207 235 26 42 41 54 87 71 46 16 68 16 111 1z"/>
</g>
</svg>
